<svg width="119" height="90" viewBox="0 0 119 90" fill="none" xmlns="http://www.w3.org/2000/svg">
<path d="M71.3304 83.1424C64.3056 81.9509 57.7919 78.7031 52.6129 73.8096C47.434 68.9162 43.8224 62.5969 42.2349 55.6509C40.6474 48.7048 41.1553 41.444 43.6944 34.7866C46.2334 28.1293 50.6896 22.3743 56.4994 18.2495C62.3092 14.1247 69.2116 11.8154 76.3339 11.6135C83.4562 11.4116 90.4784 13.3263 96.5125 17.1153C102.547 20.9044 107.322 26.3977 110.234 32.9005C113.146 39.4034 114.064 46.6238 112.873 53.6486C111.275 63.0685 106.001 71.468 98.2099 76.9992C90.4193 82.5303 80.7504 84.7401 71.3304 83.1424" stroke="#954B97" stroke-width="3.84012" stroke-miterlimit="10"/>
<path d="M2.32336 64.411C4.58124 59.1311 8.45648 54.7039 13.3911 51.767C18.3257 48.83 24.065 47.5349 29.7827 48.068" stroke="#954B97" stroke-width="3.84012" stroke-miterlimit="10"/>
<path d="M20.3239 71.8445C23.4242 65.9673 28.4659 63.4996 33.8856 63.4364" stroke="#954B97" stroke-width="3.84012" stroke-miterlimit="10"/>
<path d="M72.3613 27.6956L86.0113 30.0108C87.3366 30.2032 88.6101 30.6587 89.7568 31.3505C90.9035 32.0423 91.9003 32.9565 92.6885 34.0392C93.4767 35.1218 94.0405 36.3512 94.3467 37.655C94.6528 38.9587 94.6952 40.3105 94.4712 41.6309C94.2473 42.9513 93.7615 44.2135 93.0426 45.3434C92.3237 46.4733 91.3861 47.448 90.2849 48.2103C89.1838 48.9725 87.9413 49.5068 86.6307 49.7818C85.32 50.0569 83.9675 50.067 82.6529 49.8117L69.0029 47.4965" stroke="#EE7225" stroke-width="3.84012" stroke-miterlimit="10"/>
<path d="M65.7927 66.4211L72.6372 26.0666" stroke="#FBBB20" stroke-width="3.84012" stroke-miterlimit="10"/>
<path d="M60.1694 55.6258L81.7847 59.292" stroke="#E50050" stroke-width="3.84012" stroke-miterlimit="10"/>
</svg>
