<svg width="197" height="174" viewBox="0 0 197 174" fill="none" xmlns="http://www.w3.org/2000/svg">
<path d="M145.262 122.696C135.858 127.403 125.27 129.216 114.835 127.905C104.401 126.594 94.5901 122.219 86.6426 115.332C78.6951 108.445 72.9683 99.3566 70.1862 89.2151C67.4042 79.0736 67.692 68.3349 71.0131 58.357C74.3342 48.379 80.5396 39.6099 88.8444 33.1587C97.1493 26.7075 107.181 22.8638 117.67 22.1137C128.159 21.3636 138.636 23.7409 147.774 28.9448C156.912 34.1487 164.302 41.9456 169.009 51.3494C175.321 63.9597 176.365 78.5608 171.912 91.9408C167.458 105.321 157.872 116.384 145.262 122.696" stroke="#D90751" stroke-width="5.66772" stroke-miterlimit="10"/>
<path d="M98.1376 55.773L116.41 46.6266C118.156 45.7001 120.07 45.132 122.039 44.9558C124.007 44.7796 125.992 44.9989 127.874 45.6008C129.757 46.2026 131.5 47.1749 133.002 48.4604C134.503 49.7459 135.733 51.3187 136.617 53.0862C137.502 54.8537 138.024 56.7803 138.154 58.7527C138.283 60.725 138.016 62.7033 137.37 64.5712C136.723 66.439 135.71 68.1588 134.389 69.6292C133.068 71.0996 131.466 72.2911 129.678 73.1335L111.406 82.2799" stroke="#1487C9" stroke-width="5.66772" stroke-miterlimit="10"/>
<path d="M124.087 107.613L97.0464 53.5921" stroke="#007C37" stroke-width="5.66772" stroke-miterlimit="10"/>
<path d="M107.976 99.663L136.911 85.1793" stroke="#65B32E" stroke-width="5.66772" stroke-miterlimit="10"/>
<path d="M11.3242 46.3314C14.4169 54.2224 19.9342 60.9283 27.0814 65.4835C34.2286 70.0388 42.6371 72.2083 51.096 71.6797" stroke="#D90751" stroke-width="5.66772" stroke-miterlimit="10"/>
<path d="M38.2136 36.1773C42.5223 44.9873 49.8486 48.8551 57.8412 49.1927" stroke="#D90751" stroke-width="5.66772" stroke-miterlimit="10"/>
</svg>
