<svg width="251" height="149" viewBox="0 0 251 149" fill="none" xmlns="http://www.w3.org/2000/svg">
<path d="M141.97 104.515C136.114 102.175 131.084 98.1512 127.514 92.9528C123.945 87.7545 121.997 81.6146 121.916 75.3093C121.836 69.0041 123.626 62.8165 127.062 57.5287C130.497 52.2409 135.423 48.0903 141.217 45.6015C147.011 43.1128 153.413 42.3976 159.613 43.5464C165.813 44.6952 171.534 47.6565 176.051 52.0558C180.569 56.4551 183.681 62.0951 184.994 68.2626C186.307 74.4302 185.761 80.8486 183.427 86.7065C180.297 94.5633 174.173 100.855 166.404 104.196C158.634 107.538 149.856 107.657 141.999 104.526" stroke="#E50050" stroke-width="5.30571" stroke-miterlimit="10"/>
<path d="M153.154 56.7125L164.518 61.2407C166.641 62.1606 168.322 63.8712 169.204 66.0097C170.087 68.1482 170.101 70.5463 169.245 72.6953C168.388 74.8444 166.729 76.5753 164.617 77.5209C162.506 78.4665 160.109 78.5524 157.936 77.7603L146.572 73.2321" stroke="#007C37" stroke-width="5.30571" stroke-miterlimit="10"/>
<path d="M140.283 89.013L154.212 54.0579" stroke="#0095D4" stroke-width="5.30571" stroke-miterlimit="10"/>
<path d="M137.422 78.6279L155.448 85.8108" stroke="#65B32E" stroke-width="5.30571" stroke-miterlimit="10"/>
<path d="M247.101 66.2687L91.9531 4.44647L60.4505 83.5051L215.599 145.327L247.101 66.2687Z" stroke="#5B57A2" stroke-width="5.30571" stroke-miterlimit="10"/>
<path d="M113.358 12.9756C112.238 15.7871 110.576 18.3506 108.466 20.5194C106.356 22.6883 103.839 24.4201 101.059 25.6158C98.2789 26.8115 95.2906 27.4477 92.2648 27.4881C89.2389 27.5284 86.2348 26.9722 83.424 25.851" stroke="#5B57A2" stroke-width="5.30571" stroke-miterlimit="10"/>
<path d="M238.579 87.6761C235.767 86.5567 233.203 84.8944 231.034 82.784C228.865 80.6736 227.132 78.1565 225.936 75.3765C224.74 72.5965 224.103 69.6081 224.062 66.5819C224.021 63.5557 224.576 60.551 225.696 57.7395" stroke="#5B57A2" stroke-width="5.30571" stroke-miterlimit="10"/>
<path d="M194.206 136.769C196.471 131.092 200.897 126.547 206.511 124.133C212.126 121.719 218.47 121.634 224.147 123.896" stroke="#5B57A2" stroke-width="5.30571" stroke-miterlimit="10"/>
<path d="M68.9912 62.0712C71.8021 63.1913 74.3648 64.854 76.5331 66.9645C78.7014 69.075 80.4328 71.5919 81.6284 74.3715C82.824 77.1511 83.4604 80.1389 83.5013 83.1645C83.5422 86.19 82.9867 89.194 81.8666 92.0049" stroke="#5B57A2" stroke-width="5.30571" stroke-miterlimit="10"/>
<path d="M52.3434 21.1823L1.8877 3.32874" stroke="#5B57A2" stroke-width="5.88391"/>
<path d="M50.0146 40.5883L19.7412 29.7209" stroke="#5B57A2" stroke-width="5.88391"/>
</svg>
